<svg width="102" height="23" viewBox="0 0 102 23" fill="none" xmlns="http://www.w3.org/2000/svg">
<path d="M11.88 1.6C11.88 1.27 11.64 0.999999 11.19 0.999999H10.05C9.6 0.999999 9.36 1.27 9.36 1.6V16.81C9.36 18.46 8.07 19.93 6 19.93C3.84 19.93 2.58 18.46 2.58 16.78V1.6C2.58 1.27 2.34 0.999999 1.89 0.999999H0.75C0.3 0.999999 0.0600002 1.27 0.0600002 1.6V16.75C0.0600002 18.28 0.6 19.6 1.68 20.68C2.79 21.76 4.23 22.3 6 22.3C7.77 22.3 9.18 21.76 10.26 20.68C11.34 19.6 11.88 18.31 11.88 16.78V1.6ZM26.3283 13.93C28.0383 13.18 29.0583 11.59 29.0583 9.67V5.68C29.0583 4.39 28.5783 3.28 27.6483 2.38C26.7183 1.45 25.6083 0.999999 24.2583 0.999999H19.2183C18.7683 0.999999 18.5283 1.27 18.5283 1.6V21.4C18.5283 21.73 18.7683 22 19.2183 22H20.3583C20.8083 22 21.0483 21.73 21.0483 21.4V14.35H23.8383L26.7783 21.43C26.9283 21.82 27.1983 22 27.5883 22H29.0583C29.3883 22 29.5683 21.88 29.5683 21.64C29.5683 21.58 29.5383 21.46 29.4483 21.25L26.3283 13.93ZM26.5083 9.76C26.5083 10.99 25.4583 12.01 24.1683 12.01H21.0483V3.37H24.1683C25.4583 3.37 26.5083 4.42 26.5083 5.65V9.76ZM42.3366 3.37C43.6866 3.37 44.7966 4.42 44.7966 5.71V7.45C44.7966 8.77 43.6866 9.82 42.3366 9.82H39.3066V3.37H42.3366ZM42.1866 12.1C43.0566 12.1 43.7466 12.4 44.1966 13C44.6766 13.6 44.9166 14.2 44.9166 14.8V16.96C44.9166 18.4 43.7466 19.63 42.1866 19.63H39.3066V12.1H42.1866ZM37.4766 0.999999C37.0266 0.999999 36.7866 1.27 36.7866 1.6V21.4C36.7866 21.73 37.0266 22 37.4766 22H42.1866C43.5966 22 44.8266 21.52 45.8766 20.56C46.9266 19.6 47.4366 18.4 47.4366 16.96V14.8C47.4366 13.24 46.8066 11.95 45.5166 10.9C46.6566 9.85 47.2266 8.68 47.2266 7.33V5.68C47.2266 4.39 46.7466 3.28 45.8166 2.38C44.8866 1.45 43.6866 0.999999 42.2766 0.999999H37.4766ZM65.1548 22C65.4848 22 65.7548 21.76 65.7548 21.31V20.32C65.7548 19.87 65.4848 19.63 65.1548 19.63H61.2248V3.37H65.1548C65.4848 3.37 65.7548 3.13 65.7548 2.68V1.69C65.7548 1.24 65.4848 0.999999 65.1548 0.999999H54.7748C54.4448 0.999999 54.1748 1.24 54.1748 1.69V2.68C54.1748 3.13 54.4448 3.37 54.7748 3.37H58.7048V19.63H54.7748C54.4448 19.63 54.1748 19.87 54.1748 20.32V21.31C54.1748 21.76 54.4448 22 54.7748 22H65.1548ZM83.9831 16.78C83.9831 16.45 83.7431 16.18 83.2931 16.18H82.1531C81.7031 16.18 81.4631 16.45 81.4631 16.78C81.4631 18.55 80.0231 19.93 78.2531 19.93C76.4231 19.93 75.0131 18.55 75.0131 16.78V6.19C75.0131 4.42 76.4231 3.07 78.2531 3.07C79.0931 3.07 79.8131 3.34 80.4131 3.91C81.0131 4.48 81.3431 5.05 81.4031 5.65C81.4331 6.04 81.6731 6.25 82.0931 6.25H83.2331C83.6831 6.25 83.9231 5.98 83.9231 5.65C83.9231 4.54 83.4131 3.43 82.3631 2.35C81.3131 1.24 79.9631 0.699999 78.2531 0.699999C76.6031 0.699999 75.2231 1.24 74.1131 2.32C73.0031 3.37 72.4631 4.69 72.4631 6.22V16.75C72.4631 18.28 73.0031 19.6 74.1131 20.68C75.2231 21.76 76.6031 22.3 78.2531 22.3C79.8731 22.3 81.2231 21.76 82.3331 20.71C83.4431 19.63 83.9831 18.31 83.9831 16.78ZM92.7914 12.97L95.6414 3.37H96.2114L99.0914 12.97H92.7914ZM98.2514 1.6C98.1314 1.21 97.8914 0.999999 97.5314 0.999999H94.3214C93.9614 0.999999 93.7214 1.21 93.6014 1.6L90.3314 12.43C90.2114 12.82 90.1514 13.18 90.1514 13.54V21.4C90.1514 21.73 90.3914 22 90.8414 22H91.9814C92.4314 22 92.6714 21.73 92.6714 21.4V15.31H99.1814V21.4C99.1814 21.73 99.4214 22 99.8714 22H101.011C101.461 22 101.701 21.73 101.701 21.4V13.54C101.701 13.18 101.641 12.82 101.521 12.46L98.2514 1.6Z" fill="#CCCCCC"/>
</svg>
